<svg xmlns="http://www.w3.org/2000/svg" version="1.1" xmlns:xlink="http://www.w3.org/1999/xlink" xmlns:svgjs="http://svgjs.dev/svgjs" width="1440" height="560" preserveAspectRatio="none" viewBox="0 0 1440 560"><g mask="url(&quot;#SvgjsMask1474&quot;)" fill="none"><rect width="1440" height="560" x="0" y="0" fill="url(&quot;#SvgjsLinearGradient1475&quot;)"></rect><path d="M -625.8980148967737,509 C -553.9,457 -409.9,250.8 -265.8980148967737,249 C -121.9,247.2 -49.9,508.2 94.1019851032263,500 C 238.1,491.8 310.1,206.6 454.1019851032263,208 C 598.1,209.4 670.1,510.6 814.1019851032263,507 C 958.1,503.4 1048.92,229 1174.1019851032263,190 C 1299.28,151 1386.82,287.6 1440,312" stroke="rgba(51, 121, 194, 0.31)" stroke-width="2"></path><path d="M -58.58450928085114,423 C 13.42,381.4 157.42,205.4 301.41549071914886,215 C 445.42,224.6 517.42,458.8 661.4154907191489,471 C 805.42,483.2 877.42,276.6 1021.4154907191489,276 C 1165.42,275.4 1237.42,475.6 1381.415490719149,468 C 1525.42,460.4 1729.7,261.4 1741.415490719149,238 C 1753.13,214.6 1500.28,328.4 1440,351" stroke="rgba(51, 121, 194, 0.31)" stroke-width="2"></path><path d="M -214.98060902012375,494 C -142.98,422.8 1.02,160.2 145.01939097987625,138 C 289.02,115.8 361.02,395 505.0193909798762,383 C 649.02,371 721.02,72.6 865.0193909798762,78 C 1009.02,83.4 1081.02,396 1225.0193909798763,410 C 1369.02,424 1542.02,154.6 1585.0193909798763,148 C 1628.02,141.4 1469,331.2 1440,377" stroke="rgba(51, 121, 194, 0.31)" stroke-width="2"></path><path d="M -643.583464169699,511 C -571.58,426.6 -427.58,119 -283.583464169699,89 C -139.58,59 -67.58,333 76.41653583030097,361 C 220.42,389 292.42,244 436.416535830301,229 C 580.42,214 652.42,304.4 796.416535830301,286 C 940.42,267.6 1027.7,89.4 1156.416535830301,137 C 1285.13,184.6 1383.28,446.6 1440,524" stroke="rgba(51, 121, 194, 0.31)" stroke-width="2"></path></g><defs><mask id="SvgjsMask1474"><rect width="1440" height="560" fill="#ffffff"></rect></mask><linearGradient x1="50%" y1="0%" x2="50%" y2="100%" gradientUnits="userSpaceOnUse" id="SvgjsLinearGradient1475"><stop stop-color="#0e2a47" offset="0"></stop><stop stop-color="rgba(16, 26, 39, 1)" offset="1"></stop></linearGradient></defs></svg>