<svg xmlns="http://www.w3.org/2000/svg" version="1.1" xmlns:xlink="http://www.w3.org/1999/xlink" xmlns:svgjs="http://svgjs.dev/svgjs" width="1440" height="560" preserveAspectRatio="none" viewBox="0 0 1440 560"><g mask="url(&quot;#SvgjsMask1338&quot;)" fill="none"><rect width="1440" height="560" x="0" y="0" fill="url(&quot;#SvgjsLinearGradient1339&quot;)"></rect><path d="M -26.812204051789877,74 C 69.19,138.6 261.19,382 453.1877959482101,397 C 645.19,412 741.19,120.2 933.1877959482101,149 C 1125.19,177.8 1221.19,554.4 1413.1877959482101,541 C 1605.19,527.6 1887.83,88.4 1893.1877959482101,82 C 1898.55,75.6 1530.64,423.6 1440,509" stroke="rgba(166, 170, 212, 0.12)" stroke-width="2"></path><path d="M -745.8025806063549,179 C -649.8,209.2 -457.8,347.6 -265.802580606355,330 C -73.8,312.4 22.2,60.8 214.19741939364502,91 C 406.2,121.2 502.2,471.2 694.1974193936451,481 C 886.2,490.8 1025.04,172.4 1174.197419393645,140 C 1323.36,107.6 1386.84,283.2 1440,319" stroke="rgba(166, 170, 212, 0.12)" stroke-width="2"></path><path d="M -661.3646775717243,101 C -565.36,182.2 -373.36,509.4 -181.36467757172426,507 C 10.64,504.6 106.64,81 298.63532242827574,89 C 490.64,97 586.64,523.4 778.6353224282757,547 C 970.64,570.6 1126.36,221.6 1258.6353224282757,207 C 1390.91,192.4 1403.73,420.6 1440,474" stroke="rgba(166, 170, 212, 0.12)" stroke-width="2"></path><path d="M -347.8269166419923,267 C -251.83,271.6 -59.83,338.8 132.17308335800774,290 C 324.17,241.2 420.17,-0.2 612.1730833580077,23 C 804.17,46.2 900.17,357.4 1092.1730833580077,406 C 1284.17,454.6 1502.61,261.2 1572.1730833580077,266 C 1641.74,270.8 1466.43,397.2 1440,430" stroke="rgba(166, 170, 212, 0.12)" stroke-width="2"></path><path d="M -415.14719342488786,295 C -319.15,268.2 -127.15,136.6 64.85280657511217,161 C 256.85,185.4 352.85,404.2 544.8528065751121,417 C 736.85,429.8 832.85,230.6 1024.8528065751123,225 C 1216.85,219.4 1421.82,386.4 1504.8528065751123,389 C 1587.88,391.6 1452.97,268.2 1440,238" stroke="rgba(166, 170, 212, 0.12)" stroke-width="2"></path><path d="M -399.10410022656464,236 C -303.1,284.8 -111.1,479.6 80.89589977343535,480 C 272.9,480.4 368.9,265.6 560.8958997734353,238 C 752.9,210.4 848.9,353.6 1040.8958997734353,342 C 1232.9,330.4 1441.08,169 1520.8958997734353,180 C 1600.72,191 1456.18,353.6 1440,397" stroke="rgba(166, 170, 212, 0.12)" stroke-width="2"></path></g><defs><mask id="SvgjsMask1338"><rect width="1440" height="560" fill="#ffffff"></rect></mask><linearGradient x1="0%" y1="50%" x2="100%" y2="50%" gradientUnits="userSpaceOnUse" id="SvgjsLinearGradient1339"><stop stop-color="#0e2a47" offset="0"></stop><stop stop-color="rgba(16, 26, 39, 1)" offset="1"></stop></linearGradient></defs></svg>